<svg id="visual" viewBox="0 0 900 80" width="900" height="80" xmlns="http://www.w3.org/2000/svg" xmlns:xlink="http://www.w3.org/1999/xlink" version="1.1"><path d="M0 13L21.5 14.7C43 16.3 86 19.7 128.8 19.3C171.7 19 214.3 15 257.2 17.5C300 20 343 29 385.8 30.7C428.7 32.3 471.3 26.7 514.2 26.8C557 27 600 33 642.8 31.5C685.7 30 728.3 21 771.2 18.5C814 16 857 20 878.5 22L900 24L900 81L878.5 81C857 81 814 81 771.2 81C728.3 81 685.7 81 642.8 81C600 81 557 81 514.2 81C471.3 81 428.7 81 385.8 81C343 81 300 81 257.2 81C214.3 81 171.7 81 128.8 81C86 81 43 81 21.5 81L0 81Z" fill="#b493d1"></path><path d="M0 59L21.5 58.8C43 58.7 86 58.3 128.8 58.5C171.7 58.7 214.3 59.3 257.2 58.3C300 57.3 343 54.7 385.8 54C428.7 53.3 471.3 54.7 514.2 50.3C557 46 600 36 642.8 34.5C685.7 33 728.3 40 771.2 39.7C814 39.3 857 31.7 878.5 27.8L900 24L900 81L878.5 81C857 81 814 81 771.2 81C728.3 81 685.7 81 642.8 81C600 81 557 81 514.2 81C471.3 81 428.7 81 385.8 81C343 81 300 81 257.2 81C214.3 81 171.7 81 128.8 81C86 81 43 81 21.5 81L0 81Z" fill="#bcafdd"></path><path d="M0 42L21.5 42.2C43 42.3 86 42.7 128.8 46.7C171.7 50.7 214.3 58.3 257.2 60.5C300 62.7 343 59.3 385.8 57.8C428.7 56.3 471.3 56.7 514.2 57.7C557 58.7 600 60.3 642.8 60C685.7 59.7 728.3 57.3 771.2 56.5C814 55.7 857 56.3 878.5 56.7L900 57L900 81L878.5 81C857 81 814 81 771.2 81C728.3 81 685.7 81 642.8 81C600 81 557 81 514.2 81C471.3 81 428.7 81 385.8 81C343 81 300 81 257.2 81C214.3 81 171.7 81 128.8 81C86 81 43 81 21.5 81L0 81Z" fill="#cbc9e5"></path><path d="M0 61L21.5 60C43 59 86 57 128.8 56.8C171.7 56.7 214.3 58.3 257.2 58C300 57.7 343 55.3 385.8 55.5C428.7 55.7 471.3 58.3 514.2 61.5C557 64.7 600 68.3 642.8 69.5C685.7 70.7 728.3 69.3 771.2 68.2C814 67 857 66 878.5 65.5L900 65L900 81L878.5 81C857 81 814 81 771.2 81C728.3 81 685.7 81 642.8 81C600 81 557 81 514.2 81C471.3 81 428.7 81 385.8 81C343 81 300 81 257.2 81C214.3 81 171.7 81 128.8 81C86 81 43 81 21.5 81L0 81Z" fill="#e1e2ea"></path></svg>