<?xml version="1.0" standalone="no"?>
<svg xmlns:xlink="http://www.w3.org/1999/xlink" id="wave" style="transform:rotate(0deg); transition: 0.3s" viewBox="0 0 1440 100" version="1.1" xmlns="http://www.w3.org/2000/svg"><defs><linearGradient id="sw-gradient-0" x1="0" x2="0" y1="1" y2="0"><stop stop-color="rgba(251, 251, 254, 1)" offset="0%"/><stop stop-color="rgba(102.523, 102.523, 209.784, 1)" offset="100%"/></linearGradient></defs><path style="transform:translate(0, 0px); opacity:1" fill="url(#sw-gradient-0)" d="M0,80L80,68.3C160,57,320,33,480,31.7C640,30,800,50,960,51.7C1120,53,1280,37,1440,38.3C1600,40,1760,60,1920,68.3C2080,77,2240,73,2400,63.3C2560,53,2720,37,2880,26.7C3040,17,3200,13,3360,18.3C3520,23,3680,37,3840,46.7C4000,57,4160,63,4320,61.7C4480,60,4640,50,4800,40C4960,30,5120,20,5280,21.7C5440,23,5600,37,5760,48.3C5920,60,6080,70,6240,61.7C6400,53,6560,27,6720,28.3C6880,30,7040,60,7200,73.3C7360,87,7520,83,7680,73.3C7840,63,8000,47,8160,48.3C8320,50,8480,70,8640,70C8800,70,8960,50,9120,38.3C9280,27,9440,23,9600,21.7C9760,20,9920,20,10080,31.7C10240,43,10400,67,10560,78.3C10720,90,10880,90,11040,80C11200,70,11360,50,11440,40L11520,30L11520,100L11440,100C11360,100,11200,100,11040,100C10880,100,10720,100,10560,100C10400,100,10240,100,10080,100C9920,100,9760,100,9600,100C9440,100,9280,100,9120,100C8960,100,8800,100,8640,100C8480,100,8320,100,8160,100C8000,100,7840,100,7680,100C7520,100,7360,100,7200,100C7040,100,6880,100,6720,100C6560,100,6400,100,6240,100C6080,100,5920,100,5760,100C5600,100,5440,100,5280,100C5120,100,4960,100,4800,100C4640,100,4480,100,4320,100C4160,100,4000,100,3840,100C3680,100,3520,100,3360,100C3200,100,3040,100,2880,100C2720,100,2560,100,2400,100C2240,100,2080,100,1920,100C1760,100,1600,100,1440,100C1280,100,1120,100,960,100C800,100,640,100,480,100C320,100,160,100,80,100L0,100Z"/></svg>