<svg xmlns:xlink="http://www.w3.org/1999/xlink" id="wave" style="transform:rotate(0deg); transition: 0.3s" viewBox="0 0 1440 180" version="1.1" xmlns="http://www.w3.org/2000/svg"><defs><linearGradient id="sw-gradient-0" x1="0" x2="0" y1="1" y2="0"><stop stop-color="rgba(251, 251, 254, 1)" offset="0%"/><stop stop-color="rgba(251, 251, 254, 1)" offset="100%"/></linearGradient></defs><path style="transform:translate(0, 0px); opacity:1" fill="url(#sw-gradient-0)" d="M0,144L40,123C80,102,160,60,240,57C320,54,400,90,480,93C560,96,640,66,720,69C800,72,880,108,960,123C1040,138,1120,132,1200,114C1280,96,1360,66,1440,48C1520,30,1600,24,1680,33C1760,42,1840,66,1920,84C2000,102,2080,114,2160,111C2240,108,2320,90,2400,72C2480,54,2560,36,2640,39C2720,42,2800,66,2880,87C2960,108,3040,126,3120,111C3200,96,3280,48,3360,51C3440,54,3520,108,3600,132C3680,156,3760,150,3840,132C3920,114,4000,84,4080,87C4160,90,4240,126,4320,126C4400,126,4480,90,4560,69C4640,48,4720,42,4800,39C4880,36,4960,36,5040,57C5120,78,5200,120,5280,141C5360,162,5440,162,5520,144C5600,126,5680,90,5720,72L5760,54L5760,180L5720,180C5680,180,5600,180,5520,180C5440,180,5360,180,5280,180C5200,180,5120,180,5040,180C4960,180,4880,180,4800,180C4720,180,4640,180,4560,180C4480,180,4400,180,4320,180C4240,180,4160,180,4080,180C4000,180,3920,180,3840,180C3760,180,3680,180,3600,180C3520,180,3440,180,3360,180C3280,180,3200,180,3120,180C3040,180,2960,180,2880,180C2800,180,2720,180,2640,180C2560,180,2480,180,2400,180C2320,180,2240,180,2160,180C2080,180,2000,180,1920,180C1840,180,1760,180,1680,180C1600,180,1520,180,1440,180C1360,180,1280,180,1200,180C1120,180,1040,180,960,180C880,180,800,180,720,180C640,180,560,180,480,180C400,180,320,180,240,180C160,180,80,180,40,180L0,180Z"/></svg>